# xmcd
#
# Track frame offsets:
# 150
# 21945
# 37515
# 55267
# 75765
# 94867
# 110060
# 128187
# 140190
# 156307
#
# Disc length: 2344 seconds
#
#
# Revision: 0
# Processed by: cddbd v1.5.2PL0 Copyright (c) Steve Scherf et al.
# Submitted via: FreeRIP 2.96 
#
DISCID=7c09260a
DTITLE=Janet Paschal - Janet Paschal Christmas
DYEAR=1999
DGENRE=Christmas
TTITLE0=Have Yourself A Merry Little Christmas
TTITLE1=What A Wonderful World
TTITLE2=There's Something Going On In Bethlehem
TTITLE3=Strange Way To Save The World
TTITLE4=When Christmas Comes To Carolina
TTITLE5=Christmas Waltz
TTITLE6=Away In A Manger
TTITLE7=Rejoice
TTITLE8=Sittin' By The Fire With You
TTITLE9=Old Friends
EXTD=
EXTT0=
EXTT1=
EXTT2=
EXTT3=
EXTT4=
EXTT5=
EXTT6=
EXTT7=
EXTT8=
EXTT9=
PLAYORDER=
